<svg xmlns="http://www.w3.org/2000/svg" width="18" height="20" viewBox="0 0 18 20">
  <g id="Group_195" data-name="Group 195" transform="translate(-219.5 -195.5)">
    <rect id="Rectangle_596" data-name="Rectangle 596" width="5.095" height="1.226" transform="translate(225.886 200.471)" fill="#2b273c"/>
    <path id="Path_1362" data-name="Path 1362" d="M233.57,200.471v-.479l-.007-.045a6.243,6.243,0,0,0-.867-2.2,4.74,4.74,0,0,0-4.179-2.249,4.863,4.863,0,0,0-4.223,2.24,6.385,6.385,0,0,0-.921,2.192l-.009.053v.487H219.5V215.5h18V200.471Zm2.681,13.8h-15.5V201.7h2.614v3.825h1.249V200.1a5.317,5.317,0,0,1,.727-1.688,3.615,3.615,0,0,1,3.178-1.685,3.929,3.929,0,0,1,3.8,3.363v5.444h1.249V201.7h2.681Z" fill="#2b273c"/>
  </g>
</svg>
