<svg xmlns="http://www.w3.org/2000/svg" width="28.54" height="36.335" viewBox="0 0 28.54 36.335">
  <g id="__ico" transform="translate(-1511.191 -127.25)">
    <rect id="Rectangle_529" data-name="Rectangle 529" width="24" height="4" transform="translate(1514.904 130.703)" fill="#f89a01"/>
    <path id="Path_777" data-name="Path 777" d="M-22720.734-22362.477a1.825,1.825,0,0,1,.525,1.059v19.121l-13.076,9.428-13.887-9.428v-18.992a2.208,2.208,0,0,1,.535-1.187,2.567,2.567,0,0,1,1.266-.523h23.354A3.029,3.029,0,0,1-22720.734-22362.477Z" transform="translate(24259.113 22491)" fill="none" stroke="#2b273c" stroke-width="1.5"/>
    <line id="Line_122" data-name="Line 122" x2="26" transform="translate(1512.404 134.067)" fill="none" stroke="#f89a01" stroke-width="1.5"/>
    <line id="Line_123" data-name="Line 123" x2="6" transform="translate(1525.981 157.585) rotate(90)" fill="none" stroke="#2b273c" stroke-width="1.5"/>
    <line id="Line_124" data-name="Line 124" x2="6" transform="translate(1532.981 152.585) rotate(90)" fill="none" stroke="#2b273c" stroke-width="1.5"/>
    <line id="Line_127" data-name="Line 127" x2="6" transform="translate(1517.98 152.585) rotate(90)" fill="none" stroke="#2b273c" stroke-width="1.5"/>
    <line id="Line_125" data-name="Line 125" x2="6" transform="translate(1538.981 147.585) rotate(90)" fill="none" stroke="#2b273c" stroke-width="1.5"/>
    <line id="Line_126" data-name="Line 126" x2="6" transform="translate(1511.98 147.585) rotate(90)" fill="none" stroke="#2b273c" stroke-width="1.5"/>
    <path id="Path_1029" data-name="Path 1029" d="M263.661,942.026v-5.35A2.682,2.682,0,0,0,261,934v1.473a1.2,1.2,0,0,1,1.183,1.2v5.375a1.205,1.205,0,0,1-1.183,1.2v1.473a2.682,2.682,0,0,0,2.661-2.675" transform="translate(1265.319 -795.837)" fill="#2b273c"/>
    <path id="Path_1030" data-name="Path 1030" d="M213.478,934.5v13.441H212V934.5" transform="translate(1311.904 -796.312)" fill="#2b273c"/>
  </g>
</svg>
