<svg id="__btn" xmlns="http://www.w3.org/2000/svg" width="17.6" height="11" viewBox="0 0 17.6 11">
  <g id="Path_1435">
    <path id="Path_1436" data-name="Path 1436" d="M28.6,22.5a.755.755,0,0,1-.7-.4,8.389,8.389,0,0,0-7.3-3.6c-5.3,0-7.3,3.6-7.3,3.6a.738.738,0,0,1-1.3-.7c.1-.2,2.5-4.4,8.7-4.4s8.6,4.2,8.7,4.4a.693.693,0,0,1-.3,1A4.331,4.331,0,0,0,28.6,22.5Z" transform="translate(-11.9 -17)" fill="#757280"/>
  </g>
  <g id="Ellipse_162" transform="translate(5.1 4)">
    <g id="Group_595" data-name="Group 595">
      <path id="Path_1437" data-name="Path 1437" d="M3.5,7A3.543,3.543,0,0,1,0,3.5,3.543,3.543,0,0,1,3.5,0,3.543,3.543,0,0,1,7,3.5,3.543,3.543,0,0,1,3.5,7Zm0-5.5a2,2,0,1,0,2,2A2.006,2.006,0,0,0,3.5,1.5Z" fill="#757280"/>
    </g>
  </g>
</svg>
