<svg xmlns="http://www.w3.org/2000/svg" width="20" height="18" viewBox="0 0 20 18">
  <g  transform="translate(0 -34.445)">
    <path id="Path_1258" data-name="Path 1258" d="M275.483,172.228l0,4.5a.652.652,0,0,0,.183.455l3.128,3.217.884-.909-2.945-3.028,0-4.231Z" transform="translate(-265.484 -132.64)" />
    <path id="Path_1259" data-name="Path 1259" d="M11.25,34.445A8.841,8.841,0,0,0,2.6,42.159H0l3.125,3.214L6.25,42.159H3.863a7.571,7.571,0,0,1,7.387-6.429,7.717,7.717,0,0,1,0,15.429A7.388,7.388,0,0,1,5.336,48.19l-.985.791a8.62,8.62,0,0,0,6.9,3.464,9,9,0,0,0,0-18Z"/>
  </g>
</svg>
