<svg xmlns="http://www.w3.org/2000/svg" width="74" height="136.046" viewBox="0 0 74 136.046">
  <g id="__shape" transform="translate(-113 -111.954)">
    <g id="shopping_bag_paper_grocery_groceries-512" transform="translate(-50 -67.746)">
      <path id="Path_1454" data-name="Path 1454" d="M235.885,293.715a2.072,2.072,0,0,0-2.151.156l-5.547,3.969-5.832-3.994a2.025,2.025,0,0,0-2.333,0l-5.961,4.02-5.832-3.994a2.117,2.117,0,0,0-2.333-.026l-5.858,3.891-5.858-3.891a2.032,2.032,0,0,0-2.281,0l-5.961,3.917-5.728-3.891a2.125,2.125,0,0,0-2.307-.026l-6.065,4.02-5.573-3.994a2.072,2.072,0,0,0-2.151-.156A2.051,2.051,0,0,0,163,295.556v78.333a2.08,2.08,0,0,0,2.074,2.075h69.853A2.08,2.08,0,0,0,237,373.889V295.556A2.1,2.1,0,0,0,235.885,293.715Zm-68.738,78.1V299.577l3.473,2.464a2.071,2.071,0,0,0,2.333.052l6.091-4.02,5.728,3.891a2.124,2.124,0,0,0,2.307.026l5.987-3.917,5.858,3.917a2.075,2.075,0,0,0,2.307,0l5.832-3.891,5.832,3.994a2.025,2.025,0,0,0,2.333,0l5.961-4.02,5.832,3.994a2.064,2.064,0,0,0,2.385-.026l3.473-2.464v59.268H174.3V363h58.578v8.819Z" transform="translate(0 -84.264)" fill="#d8d8d8"/>
      <g id="Group_651" data-name="Group 651" transform="translate(170.517 193.784)">
        <path id="Path_1455" data-name="Path 1455" d="M226.862,246.71h-4.147v-8.56H196.147v8.56H192V236.075A2.08,2.08,0,0,1,194.074,234h30.715a2.08,2.08,0,0,1,2.074,2.075Z" transform="translate(-192 -234)" fill="#d8d8d8"/>
      </g>
      <path id="Path_1456" data-name="Path 1456" d="M294.374,195.859l-3.888-4.8a2.051,2.051,0,0,0-1.607-.778H284.4v-8.508a2.08,2.08,0,0,0-2.074-2.075H252.074A2.08,2.08,0,0,0,250,181.775V188.7h4.147v-4.85h26.1v6.51a2.228,2.228,0,0,0-1.063.623l-4.277,4.669a2.026,2.026,0,0,0-.544,1.4v9.441h4.147v-8.663l3.11-3.4h6.273l2.8,3.45v8.611h4.147v-9.338A1.993,1.993,0,0,0,294.374,195.859Z" transform="translate(-64.45)" fill="#d8d8d8"/>
    </g>
    <ellipse id="Ellipse_171" data-name="Ellipse 171" cx="37" cy="4" rx="37" ry="4" transform="translate(113 240)" fill="#efefef"/>
  </g>
</svg>
