<svg xmlns="http://www.w3.org/2000/svg" width="20.4" height="20.4" viewBox="0 0 20.4 20.4">
  <g id="__sign" transform="translate(0.2 0.237)">
    <g id="Group_86" data-name="Group 86" transform="translate(0 -0.037)">
      <path id="Path_1024" data-name="Path 1024" d="M20,11.113V1.164c0-.826-.338-1.2-1.328-1.2H1.263C.313-.037,0,.292,0,1.329V11.993H0v2.474H1.053V12.6l3.158,1.649v2.968H5.263V14.8l4.561,2.419v2.748h1.053V17.1l3.86-2.2V17.16h1.053V14.3l3.158-1.759v1.924H20V11.113ZM1.263.944A.876.876,0,0,1,1.754.779H18.105c.211.055.356,0,.567.108s.205.276.275.331V3.253H1.053V1.329A.538.538,0,0,1,1.263.944ZM14.737,13.862h0l-4.491,2.583L1.053,11.553v-.385h0V4.132H18.947v7.421Z" transform="translate(0 0.037)"   stroke-width="0.4"/>
      <path id="Path_1027" data-name="Path 1027" d="M263.261,939.34v-3.56A2.074,2.074,0,0,0,261,934v.98a.929.929,0,0,1,1,.8v3.577a.929.929,0,0,1-1,.8v.98a2.074,2.074,0,0,0,2.261-1.78" transform="translate(-250.249 -928.673)" />
      <path id="Path_1028" data-name="Path 1028" d="M213.256,934.5v8.944H212V934.5" transform="translate(-203.3 -929.156)"   stroke-width="0.4"/>
    </g>
  </g>
</svg>
