<svg id="__user" xmlns="http://www.w3.org/2000/svg" width="26.667" height="32" viewBox="0 0 26.667 32">
  <path id="Path_1022" data-name="Path 1022" d="M.1,21.18l1.569,1.44a18.192,18.192,0,0,1,11.765-4.64A18.726,18.726,0,0,1,25.2,22.62l1.569-1.44A19.475,19.475,0,0,0,.1,21.18Z" transform="translate(-0.1 9.38)" />
  <path id="Path_1023" data-name="Path 1023" d="M12.353.1A10.275,10.275,0,0,0,2,10.34a10.412,10.412,0,0,0,10.353,10.4A10.275,10.275,0,0,0,22.706,10.5,10.408,10.408,0,0,0,12.353.1Zm0,18.4h0A8.047,8.047,0,0,1,4.2,10.34h0a8.145,8.145,0,0,1,8.157-8.16h0a8.047,8.047,0,0,1,8.157,8.16h0A8.044,8.044,0,0,1,12.353,18.5Z" transform="translate(0.98 -0.1)" />
</svg>
