<svg xmlns="http://www.w3.org/2000/svg" width="24.23" height="24" viewBox="0 0 24.23 24">
  <g id="aparat_icon_color_black_1024" transform="translate(-92.989 926.876)">
    <path id="Path_3" data-name="Path 3" d="M202.8-926.833a3.8,3.8,0,0,0-2.86,2.4c-.087.243-.665,2.389-.648,2.4a1.817,1.817,0,0,0,.26-.269,14.962,14.962,0,0,1,1.278-1.255,11.421,11.421,0,0,1,5.191-2.475c.763-.145.691-.127.622-.156-.116-.049-2.276-.6-2.519-.648A5.343,5.343,0,0,0,202.8-926.833Z" transform="translate(-103.224)" fill="#2b273c"/>
    <path id="Path_4" data-name="Path 4" d="M158.324-871.729l-.4.043a10.506,10.506,0,0,0-6.235,2.99,10.336,10.336,0,0,0-3.022,6.319,14.719,14.719,0,0,0,0,2.082,10.257,10.257,0,0,0,1.073,3.641,10.483,10.483,0,0,0,7.4,5.553,8.16,8.16,0,0,0,2,.159,8.16,8.16,0,0,0,2-.159,10.462,10.462,0,0,0,5.48-2.9,10.324,10.324,0,0,0,2.932-8.849,9.782,9.782,0,0,0-.911-2.964,9.963,9.963,0,0,0-2.036-2.863,10.489,10.489,0,0,0-6.117-3C160.178-871.717,158.581-871.758,158.324-871.729Zm-1.489,2.872a2.957,2.957,0,0,1,2.273,2.866,2.915,2.915,0,0,1-1.666,2.646,2.33,2.33,0,0,1-1.316.286,2.339,2.339,0,0,1-.729-.064,3.034,3.034,0,0,1-2.166-2.169,3.064,3.064,0,0,1,.064-1.6,3.037,3.037,0,0,1,2.319-2A3.861,3.861,0,0,1,156.835-868.857Zm7.45,1.417a3.087,3.087,0,0,1,1.862,1.261,2.917,2.917,0,0,1-.428,3.765,2.984,2.984,0,0,1-3.7.315,2.958,2.958,0,0,1-1.319-2.713,2.364,2.364,0,0,1,.147-.677,2.921,2.921,0,0,1,1.489-1.7,2.676,2.676,0,0,1,1.327-.307A2.885,2.885,0,0,1,164.284-867.44Zm-4.78,4.951a1.326,1.326,0,0,1,.873,1.035,1.324,1.324,0,0,1-1.5,1.478,1.311,1.311,0,0,1-1.021-1.782,1.393,1.393,0,0,1,1.056-.8A1.5,1.5,0,0,1,159.5-862.489Zm-4.2,1.5a2.984,2.984,0,0,1,2.267,2.585,3.192,3.192,0,0,1-.043.888,2.981,2.981,0,0,1-1.672,2.071,2.463,2.463,0,0,1-1.16.263,2.3,2.3,0,0,1-.7-.043,2.964,2.964,0,0,1-1.466-.784,2.849,2.849,0,0,1-.818-1.391,2.972,2.972,0,0,1,2.357-3.63A3.766,3.766,0,0,1,155.3-860.991Zm7.568,1.443a3.045,3.045,0,0,1,1.761,1.258,2.791,2.791,0,0,1,.48,1.466,2.94,2.94,0,0,1-1.654,2.782,3,3,0,0,1-2.487.075,2.944,2.944,0,0,1-1.507-1.426,2.27,2.27,0,0,1-.283-1.3,2,2,0,0,1,.078-.775,3.018,3.018,0,0,1,2.3-2.117A4.061,4.061,0,0,1,162.87-859.548Z" transform="translate(-54.027 -53.543)" fill="#2b273c"/>
    <path id="Path_5" data-name="Path 5" d="M751-824.819a2.858,2.858,0,0,0,.284.243,11.4,11.4,0,0,1,4.075,7.068,1.766,1.766,0,0,0,.067.341c.023,0,.72-2.643.755-2.874a4.478,4.478,0,0,0,.017-.68A3.168,3.168,0,0,0,755.94-822a3.761,3.761,0,0,0-2.134-2.068c-.1-.041-.755-.22-1.446-.4s-1.281-.338-1.307-.347S751-824.827,751-824.819Z" transform="translate(-638.982 -99.1)" fill="#2b273c"/>
    <path id="Path_6" data-name="Path 6" d="M93.643-449.8c-.072.211-.6,2.261-.628,2.432a4.836,4.836,0,0,0,.069,1.446,3.729,3.729,0,0,0,2.354,2.606c.252.093,2.429.665,2.47.651.014-.006-.093-.107-.24-.226a13.2,13.2,0,0,1-1.246-1.2,11.386,11.386,0,0,1-2.681-5.393C93.674-449.836,93.663-449.865,93.643-449.8Z" transform="translate(0 -463.252)" fill="#2b273c"/>
    <path id="Path_7" data-name="Path 7" d="M574.331-275.479a11.584,11.584,0,0,1-6.952,4.133,2.314,2.314,0,0,0-.379.081c0,.026,2.36.636,2.652.688a4.6,4.6,0,0,0,1.541-.064,3.691,3.691,0,0,0,1.8-1.047,3.569,3.569,0,0,0,.8-1.252c.084-.223.769-2.747.749-2.768A1.479,1.479,0,0,0,574.331-275.479Z" transform="translate(-460.303 -632.336)" fill="#2b273c"/>
  </g>
</svg>
