<svg xmlns="http://www.w3.org/2000/svg" width="20" height="18" viewBox="0 0 20 18">
  <g id="_018_197_arrow_reload_undo_refresh_backup_rotate-256" data-name="018_197_arrow_reload_undo_refresh_backup_rotate-256" transform="translate(-184 -284.7)">
    <ellipse id="Ellipse_170" data-name="Ellipse 170" cx="1.969" cy="2.044" rx="1.969" ry="2.044" transform="translate(193.356 291.66)" />
    <path id="Path_1451" data-name="Path 1451" d="M188.519,293.911l1.27-1.3,1.343,1.441-3.593,3.654L184,293.958l1.434-1.347,1.207,1.366c0-5.349,3.857-9.277,8.693-9.277,5.29,0,8.666,4.9,8.666,9.164,0,3.56-2.768,8.834-8.666,8.834a8.4,8.4,0,0,1-6.125-2.618l1.343-1.318a6.9,6.9,0,0,0,4.791,2.025,7,7,0,0,0,6.806-7.082,6.876,6.876,0,0,0-6.806-7.063C191.332,286.64,188.519,289.8,188.519,293.911Z" />
  </g>
</svg>
