<svg xmlns="http://www.w3.org/2000/svg" width="24.232" height="24.2" viewBox="0 0 24.232 24.2">
  <g id="chat_1_" data-name="chat (1)" transform="translate(0.11 0.1)">
    <path id="Path_1294" data-name="Path 1294" d="M21.6,20.586A9.875,9.875,0,0,0,18.64,5.355,9.866,9.866,0,1,0,2.4,16.32L.21,18.484a.7.7,0,0,0,.491,1.2l5.295.025A9.857,9.857,0,0,0,14.132,24l9.167-.047a.7.7,0,0,0,.49-1.2ZM3.879,15.845a8.46,8.46,0,1,1,5.713,2.479l-7.184-.034,1.467-1.448a.7.7,0,0,0,0-1Zm10.253,6.749a8.417,8.417,0,0,1-6.355-2.873l2.089.013a9.878,9.878,0,0,0,9.595-12.17A8.46,8.46,0,0,1,20.12,20.11a.7.7,0,0,0,0,1l1.467,1.448-7.458.039Z" transform="translate(0)" fill="#2b273c" stroke="#fff" stroke-width="0.2"/>
    <path id="Path_1295" data-name="Path 1295" d="M106.709,137.406h8.437a.7.7,0,0,0,0-1.406h-8.437a.7.7,0,0,0,0,1.406Z" transform="translate(-101.037 -129.625)" fill="#2b273c" stroke="#fff" stroke-width="0.2"/>
    <path id="Path_1296" data-name="Path 1296" d="M106.709,197.406h8.437a.7.7,0,0,0,0-1.406h-8.437a.7.7,0,0,0,0,1.406Z" transform="translate(-101.037 -186.813)" fill="#2b273c" stroke="#fff" stroke-width="0.2"/>
    <path id="Path_1297" data-name="Path 1297" d="M106.709,257.406h8.437a.7.7,0,0,0,0-1.406h-8.437a.7.7,0,0,0,0,1.406Z" transform="translate(-101.037 -244)" fill="#2b273c" stroke="#fff" stroke-width="0.2"/>
  </g>
</svg>
