<svg xmlns="http://www.w3.org/2000/svg" width="19.883" height="20" viewBox="0 0 19.883 20">
  <g id="commerce-shopping-cart-2-512" transform="translate(-152 -242.1)">
    <path id="Path_1442" data-name="Path 1442" d="M168.927,251.782l-9.474,1.007.169,1.618,9.487-1.007h.02a2.716,2.716,0,0,0,2.131-2.489l.624-5.4h-15.25l-.221-1.761-.006-.026a1.872,1.872,0,0,0-1.677-1.618l-.052-.007H152v1.624h2.573c.143.026.2.091.228.247l1.429,11.358v.02a2.927,2.927,0,0,0,2.657,2.645h11.729v-1.624H158.887c-.513,0-.955-.643-1.046-1.248l-1-7.979h13.223l-.416,3.574C169.6,251.087,169.355,251.717,168.927,251.782Z" transform="translate(0 0)" />
    <g id="Group_629" data-name="Group 629" transform="translate(157.01 258.734)">
      <circle id="Ellipse_162" data-name="Ellipse 162" cx="1.683" cy="1.683" r="1.683" transform="translate(0 0)" />
    </g>
    <g id="Group_630" data-name="Group 630" transform="translate(167.016 258.734)">
      <circle id="Ellipse_163" data-name="Ellipse 163" cx="1.683" cy="1.683" r="1.683" transform="translate(0 0)" />
    </g>
  </g>
</svg>
