<svg xmlns="http://www.w3.org/2000/svg" width="17.943" height="20.2" viewBox="0 0 17.943 20.2">
  <g id="delete" transform="translate(0.1 0.1)">
    <g id="Group_612" data-name="Group 612" transform="translate(0 0)">
      <g id="Group_611" data-name="Group 611">
        <path id="Path_1438" data-name="Path 1438" d="M74.508,114.908H61.534a.513.513,0,0,0-.385.128.436.436,0,0,0-.128.385l1.333,11.615a2.538,2.538,0,0,0,2.538,2.231h6.461a2.538,2.538,0,0,0,2.564-2.308l1.1-11.589a.436.436,0,0,0-.128-.333A.513.513,0,0,0,74.508,114.908Zm-1.615,12a1.487,1.487,0,0,1-1.538,1.333H64.893a1.462,1.462,0,0,1-1.513-1.308l-1.282-11H73.944Z" transform="translate(-59.15 -109.267)" fill="#504e5a" stroke="#504e5a" stroke-width="0.2"/>
        <path id="Path_1439" data-name="Path 1439" d="M40.223,2.308H34.941V1.487A1.436,1.436,0,0,0,33.558,0H30.249a1.436,1.436,0,0,0-1.462,1.409q0,.039,0,.078v.82H23.506a.513.513,0,1,0,0,1.026H40.223a.513.513,0,1,0,0-1.026Zm-6.308-.821v.82h-4.1v-.82a.41.41,0,0,1,.436-.462H33.48a.41.41,0,0,1,.438.38A.406.406,0,0,1,33.916,1.487Z" transform="translate(-22.993 0)" fill="#504e5a" stroke="#504e5a" stroke-width="0.2"/>
      </g>
    </g>
  </g>
</svg>
