<svg xmlns="http://www.w3.org/2000/svg" width="24" height="24" viewBox="0 0 24 24">
  <path id="instagram_1_" data-name="instagram (1)" d="M8.96,2H19.04A6.965,6.965,0,0,1,26,8.96V19.04A6.96,6.96,0,0,1,19.04,26H8.96A6.965,6.965,0,0,1,2,19.04V8.96A6.96,6.96,0,0,1,8.96,2M8.72,4.4A4.32,4.32,0,0,0,4.4,8.72V19.28A4.317,4.317,0,0,0,8.72,23.6H19.28a4.32,4.32,0,0,0,4.32-4.32V8.72A4.317,4.317,0,0,0,19.28,4.4H8.72M20.3,6.2a1.5,1.5,0,1,1-1.5,1.5,1.5,1.5,0,0,1,1.5-1.5M14,8a6,6,0,1,1-6,6,6,6,0,0,1,6-6m0,2.4A3.6,3.6,0,1,0,17.6,14,3.6,3.6,0,0,0,14,10.4Z" transform="translate(-2 -2)" fill="#2b273c"/>
</svg>
