<svg xmlns="http://www.w3.org/2000/svg" width="20" height="20" viewBox="0 0 20 20">
  <g id="logout-512" transform="translate(-112.7 -200.3)">
    <path id="Path_1452" data-name="Path 1452" d="M249.819,306.2l-.957.962,3.216,3.251-11.279-.019v1.361h11.284l-3.183,3.222.942.948,4.8-4.849Z" transform="translate(-121.941 -100.754)" />
    <path id="Path_1453" data-name="Path 1453" d="M123.988,217.287a1.934,1.934,0,0,1-1.707,1.7h-6.558a1.91,1.91,0,0,1-1.712-1.822V203.468a1.888,1.888,0,0,1,1.822-1.788h6.317a1.842,1.842,0,0,1,1.8,1.749v4.446h1.317v-4.548a3.24,3.24,0,0,0-3.01-3.027H115.8a3.307,3.307,0,0,0-3.091,2.945l0,.015v14.169a3.183,3.183,0,0,0,2.889,2.867l.014,0h6.707a3.109,3.109,0,0,0,2.957-3.09v-4.451h-1.284v4.529Z" transform="translate(0 0)" />
  </g>
</svg>
