<svg xmlns="http://www.w3.org/2000/svg" width="24" height="24" viewBox="0 0 24 24">
  <g id="Group_915" data-name="Group 915" transform="translate(-651.323 -350.833)">
    <g id="Group_913" data-name="Group 913" transform="translate(651.323 354.332)">
      <path id="Path_1925" data-name="Path 1925" d="M663.25,380.835c-6.965,0-11.788-5.606-11.922-10.841a13.566,13.566,0,0,1,3.6-9.385.957.957,0,0,1,1.331-.01.906.906,0,0,1,.012,1.3,11.922,11.922,0,0,0-3.057,8.049c.112,4.369,4.173,9.046,10.04,9.046a10.072,10.072,0,0,0,10.168-9.09c.338-4.518-3.309-7.944-3.346-7.978a.907.907,0,0,1-.04-1.3.955.955,0,0,1,1.328-.041c.177.162,4.339,4.046,3.935,9.455A11.945,11.945,0,0,1,663.25,380.835Z" transform="translate(-651.323 -360.334)" fill="#504e5a"/>
    </g>
    <g id="Group_914" data-name="Group 914" transform="translate(662.308 350.833)">
      <path id="Path_1926" data-name="Path 1926" d="M681.441,365.012a.931.931,0,0,1-.941-.921V351.754a.942.942,0,0,1,1.883,0v12.337A.931.931,0,0,1,681.441,365.012Z" transform="translate(-680.5 -350.833)" fill="#504e5a"/>
    </g>
  </g>
</svg>
