<svg xmlns="http://www.w3.org/2000/svg" width="40" height="29.568" viewBox="0 0 40 29.568">
  <g id="profiles_1_" data-name="profiles (1)" transform="translate(0 -66.764)">
    <path id="Path_1282" data-name="Path 1282" d="M202.761,235.887a.586.586,0,0,0,.586.586h7.359a.586.586,0,1,0,0-1.173h-7.359A.586.586,0,0,0,202.761,235.887Z" transform="translate(-186.92 -155.37)" fill="#2b273c"/>
    <path id="Path_1283" data-name="Path 1283" d="M210.706,267.847a.586.586,0,1,0,0-1.173h-7.359a.586.586,0,0,0,0,1.173Z" transform="translate(-186.92 -184.292)" fill="#2b273c"/>
    <path id="Path_1284" data-name="Path 1284" d="M55.076,328.8a.586.586,0,1,0,0,1.173H60.09a.586.586,0,1,0,0-1.173Z" transform="translate(-50.233 -241.563)" fill="#2b273c"/>
    <path id="Path_1285" data-name="Path 1285" d="M40.067,361.343h7.359a.586.586,0,0,0,0-1.173H40.067a.586.586,0,1,0,0,1.173Z" transform="translate(-36.397 -270.484)" fill="#2b273c"/>
    <path id="Path_1286" data-name="Path 1286" d="M39.414,89.605A.586.586,0,0,0,40,89.019V77.335a3.27,3.27,0,0,0-3.266-3.266H28.766a3.246,3.246,0,0,0-1.509.371V70.03a3.27,3.27,0,0,0-3.266-3.266H16.023a3.27,3.27,0,0,0-3.266,3.266v4.416a3.246,3.246,0,0,0-1.522-.378H4.125a.586.586,0,0,0,0,1.173h7.109a2.1,2.1,0,0,1,2.094,2.094V93.065a2.1,2.1,0,0,1-2.094,2.094H3.266a2.1,2.1,0,0,1-2.094-2.094V77.335a2.076,2.076,0,0,1,.65-1.517.586.586,0,1,0-.808-.849A3.237,3.237,0,0,0,0,77.335V93.066a3.27,3.27,0,0,0,3.266,3.266h7.967A3.27,3.27,0,0,0,14.5,93.066V77.335a3.248,3.248,0,0,0-.573-1.846c0-.011,0-.022,0-.034V70.031a2.1,2.1,0,0,1,2.094-2.094H23.99a2.1,2.1,0,0,1,2.094,2.094v5.443a3.247,3.247,0,0,0-.585,1.862v9.877a2.082,2.082,0,0,1-1.509.643H16.843a.586.586,0,1,0,0,1.173H23.99a3.258,3.258,0,0,0,1.509-.369v4.407a3.27,3.27,0,0,0,3.266,3.266h7.967A3.27,3.27,0,0,0,40,93.066v-1.31a.586.586,0,0,0-1.173,0v1.31a2.1,2.1,0,0,1-2.094,2.094H28.766a2.1,2.1,0,0,1-2.094-2.094V77.335a2.1,2.1,0,0,1,2.094-2.094h7.968a2.1,2.1,0,0,1,2.094,2.094V89.019A.586.586,0,0,0,39.414,89.605Z" transform="translate(0 0)" fill="#2b273c"/>
    <path id="Path_1287" data-name="Path 1287" d="M374.4,329.384a.586.586,0,0,0-.586-.586h-7.359a.586.586,0,1,0,0,1.173h7.359A.586.586,0,0,0,374.4,329.384Z" transform="translate(-337.289 -241.563)" fill="#2b273c"/>
    <path id="Path_1288" data-name="Path 1288" d="M376.466,360.17a.586.586,0,1,0,0,1.173h5.8a.586.586,0,1,0,0-1.173Z" transform="translate(-346.514 -270.484)" fill="#2b273c"/>
    <path id="Path_1289" data-name="Path 1289" d="M212.121,102.222h-.566a2.707,2.707,0,0,0-2.7,2.7v.448a1.178,1.178,0,0,0-.737,1.237,1.746,1.746,0,0,0,.848,1.39,2.987,2.987,0,0,0,5.758-.021,1.765,1.765,0,0,0,.809-1.369,1.176,1.176,0,0,0-.7-1.223v-.462A2.707,2.707,0,0,0,212.121,102.222Zm2.238,4.3a.673.673,0,0,1-.208.427.586.586,0,0,0-.518.5,1.814,1.814,0,0,1-3.591,0,.586.586,0,0,0-.555-.5.679.679,0,0,1-.2-.425.254.254,0,0,1,0-.061.3.3,0,0,1,.112-.026.586.586,0,0,0,.627-.585v-.927a1.533,1.533,0,0,1,1.531-1.531h.566a1.533,1.533,0,0,1,1.531,1.531v.926a.588.588,0,0,0,.174.416.6.6,0,0,0,.417.171.314.314,0,0,1,.114.026A.259.259,0,0,1,214.359,106.525Z" transform="translate(-191.851 -32.688)" fill="#2b273c"/>
    <path id="Path_1290" data-name="Path 1290" d="M375.23,195.731h-.566a2.707,2.707,0,0,0-2.7,2.7v.447a1.175,1.175,0,0,0-.737,1.238,1.746,1.746,0,0,0,.848,1.39,2.987,2.987,0,0,0,5.758-.021,1.766,1.766,0,0,0,.809-1.369,1.174,1.174,0,0,0-.7-1.224v-.461A2.706,2.706,0,0,0,375.23,195.731Zm2.238,4.3a.673.673,0,0,1-.208.427.586.586,0,0,0-.518.5,1.814,1.814,0,0,1-3.591,0,.586.586,0,0,0-.555-.5.68.68,0,0,1-.2-.425.26.26,0,0,1,0-.061.3.3,0,0,1,.113-.026.586.586,0,0,0,.626-.585v-.927a1.533,1.533,0,0,1,1.531-1.531h.566a1.533,1.533,0,0,1,1.531,1.531v.926a.59.59,0,0,0,.59.586h0a.312.312,0,0,1,.114.026A.256.256,0,0,1,377.468,200.034Z" transform="translate(-342.217 -118.891)" fill="#2b273c"/>
    <path id="Path_1291" data-name="Path 1291" d="M50.587,195.731h-.566a2.707,2.707,0,0,0-2.7,2.7v.447a1.175,1.175,0,0,0-.737,1.238,1.746,1.746,0,0,0,.848,1.39,2.987,2.987,0,0,0,5.758-.021,1.765,1.765,0,0,0,.809-1.369,1.175,1.175,0,0,0-.7-1.224v-.461A2.706,2.706,0,0,0,50.587,195.731Zm2.238,4.3a.673.673,0,0,1-.208.427.586.586,0,0,0-.518.5,1.814,1.814,0,0,1-3.591,0,.586.586,0,0,0-.555-.5.68.68,0,0,1-.2-.425.257.257,0,0,1,0-.061.3.3,0,0,1,.113-.026.586.586,0,0,0,.626-.585v-.927a1.533,1.533,0,0,1,1.531-1.531h.566a1.533,1.533,0,0,1,1.531,1.531v.926a.59.59,0,0,0,.59.586h0a.314.314,0,0,1,.114.026A.256.256,0,0,1,52.825,200.034Z" transform="translate(-42.937 -118.891)" fill="#2b273c"/>
  </g>
</svg>
