<svg xmlns="http://www.w3.org/2000/svg" width="32" height="32" viewBox="0 0 32 32">
  <path id="iconfinder_00-ELASTOFONT-STORE-READY_user-circle_2703062" d="M33,17A16,16,0,1,0,5.9,28.5a.976.976,0,0,0,.252.229,15.907,15.907,0,0,0,21.7,0A.976.976,0,0,0,28.1,28.5,15.943,15.943,0,0,0,33,17ZM17,3A13.98,13.98,0,0,1,27.973,25.668c-.867-2.8-3.344-4.987-6.7-5.994a7.3,7.3,0,1,0-8.538,0c-3.361,1.008-5.837,3.2-6.7,5.994A13.98,13.98,0,0,1,17,3ZM11.7,13.774A5.3,5.3,0,1,1,17,19.063,5.3,5.3,0,0,1,11.7,13.774ZM7.708,27.443c.3-3.667,4.189-6.38,9.292-6.38s8.992,2.714,9.292,6.38a13.915,13.915,0,0,1-18.585,0Z" transform="translate(-1 -1)" fill="#ff4a6d"/>
</svg>
