<svg xmlns="http://www.w3.org/2000/svg" width="40" height="19.111" viewBox="0 0 40 19.111">
  <g id="review" transform="translate(0.001 -133.827)">
    <path id="Path_1304" data-name="Path 1304" d="M148.454,147.29a.917.917,0,0,1,.178-.986l2.748-2.913a2.087,2.087,0,0,0-1.018-3.459l-3.96-.977a.911.911,0,0,1-.615-.512l-1.537-3.391a2.087,2.087,0,0,0-3.8,0l-1.537,3.391a.912.912,0,0,1-.615.512l-3.96.977a2.087,2.087,0,0,0-1.018,3.459l2.748,2.913a.917.917,0,0,1,.178.985l-1.159,2.745a2.093,2.093,0,0,0,1.91,2.9,2.12,2.12,0,0,0,.753-.14l.415-.157a.585.585,0,0,0-.415-1.095l-.415.157a.917.917,0,0,1-1.169-1.213l1.159-2.745a2.088,2.088,0,0,0-.4-2.244l-2.748-2.913a.917.917,0,0,1,.447-1.519l3.961-.977a2.076,2.076,0,0,0,1.4-1.165l1.537-3.391a.916.916,0,0,1,1.67,0l1.537,3.391a2.076,2.076,0,0,0,1.4,1.165l3.96.977a.916.916,0,0,1,.447,1.519L147.78,145.5a2.088,2.088,0,0,0-.4,2.244l1.159,2.745a.916.916,0,0,1-1.169,1.213l-4.277-1.623a2.086,2.086,0,0,0-1.481,0l-1.525.578a.585.585,0,0,0,.415,1.095l1.525-.578a.916.916,0,0,1,.65,0l4.277,1.623a2.087,2.087,0,0,0,2.663-2.763Z" transform="translate(-122.386)" fill="#2b273c"/>
    <path id="Path_1305" data-name="Path 1305" d="M10.174,229.039l-2.216-.547a.253.253,0,0,1-.171-.142l-.86-1.9a1.425,1.425,0,0,0-2.6,0l-.86,1.9a.253.253,0,0,1-.171.142l-2.216.547a1.425,1.425,0,0,0-.7,2.362l1.537,1.63a.255.255,0,0,1,.049.274l-.648,1.536a1.429,1.429,0,0,0,1.3,1.983,1.447,1.447,0,0,0,.514-.1l2.393-.908h0a.254.254,0,0,1,.181,0l2.393.908a1.425,1.425,0,0,0,1.819-1.887l-.649-1.536a.255.255,0,0,1,.049-.274l1.537-1.63a1.426,1.426,0,0,0-.7-2.362Zm-.156,1.559-1.537,1.63A1.426,1.426,0,0,0,8.2,233.76l.649,1.536a.255.255,0,0,1-.325.337l-2.393-.908a1.424,1.424,0,0,0-1.011,0h0l-2.393.908a.255.255,0,0,1-.325-.337l.648-1.536a1.426,1.426,0,0,0-.276-1.533L1.241,230.6a.255.255,0,0,1,.124-.422l2.216-.547a1.417,1.417,0,0,0,.957-.8l.86-1.9a.255.255,0,0,1,.464,0l.86,1.9a1.417,1.417,0,0,0,.957.8l2.216.547a.255.255,0,0,1,.124.422Z" transform="translate(0 -84.625)" fill="#2b273c"/>
    <path id="Path_1306" data-name="Path 1306" d="M379.165,231.4a1.43,1.43,0,0,0,.006-1.949.585.585,0,0,0-.858.8.254.254,0,0,1,0,.35l-1.537,1.63a1.426,1.426,0,0,0-.276,1.533l.649,1.536a.255.255,0,0,1-.325.337l-2.393-.908a1.425,1.425,0,0,0-1.011,0l-2.393.908a.255.255,0,0,1-.325-.337l.649-1.536a1.426,1.426,0,0,0-.276-1.533l-1.537-1.63a.255.255,0,0,1,.124-.422l2.215-.547a1.417,1.417,0,0,0,.957-.8l.86-1.9a.255.255,0,0,1,.464,0l.86,1.9a1.416,1.416,0,0,0,.957.8l.178.044a.585.585,0,0,0,.281-1.136l-.179-.044a.253.253,0,0,1-.171-.142l-.86-1.9a1.41,1.41,0,0,0-1.3-.837h0a1.41,1.41,0,0,0-1.3.837l-.86,1.9a.253.253,0,0,1-.171.142l-2.216.547a1.425,1.425,0,0,0-.7,2.362l1.537,1.63a.255.255,0,0,1,.049.274l-.649,1.536a1.426,1.426,0,0,0,1.819,1.887l2.393-.908a.255.255,0,0,1,.181,0l2.393.908a1.449,1.449,0,0,0,.514.1,1.429,1.429,0,0,0,1.3-1.983l-.649-1.536a.255.255,0,0,1,.049-.274Z" transform="translate(-339.552 -84.625)" fill="#2b273c"/>
  </g>
</svg>
