<svg xmlns="http://www.w3.org/2000/svg" width="32" height="29.741" viewBox="0 0 32 29.741">
  <g id="shopping_1_" data-name="shopping (1)" transform="translate(0 0)">
    <path id="Path_1315" data-name="Path 1315" d="M214.359,300.362a.625.625,0,1,0-.884,0A.626.626,0,0,0,214.359,300.362Zm0,0" transform="translate(-199.961 -280.589)"/>
    <path id="Path_1316" data-name="Path 1316" d="M224.633,62.254V63.5a3.75,3.75,0,0,0,7.5,0v-1.25a.625.625,0,0,0,0-1.25h-1.25a.625.625,0,0,0,0,1.25V63.5a2.5,2.5,0,0,1-5,0v-1.25a.625.625,0,0,0,0-1.25h-1.25a.625.625,0,0,0,0,1.25Zm0,0" transform="translate(-210.008 -57.192)"/>
    <path id="Path_1317" data-name="Path 1317" d="M7.264,29.558a.625.625,0,0,0,.884,0l1.919-1.919a2.893,2.893,0,0,0,.839-2.345l.688-.665a2.9,2.9,0,0,1,2.021-.816h8.229a5.593,5.593,0,0,0,3.923-1.594.586.586,0,0,0,.044-.048l5.6-6.724A2.5,2.5,0,0,0,27.606,12.2l-.6.625V.625A.625.625,0,0,0,26.376,0H10.313a.625.625,0,0,0-.625.625v14a7.518,7.518,0,0,0-5.374,4.207,2.886,2.886,0,0,0-2.2.848L.184,21.6a.625.625,0,0,0,0,.885ZM25.751,1.25V14.121l-1.809,1.87A2.511,2.511,0,0,0,22,15.062H14.754a.345.345,0,0,1-.127-.027,8.077,8.077,0,0,0-3.064-.6c-.209,0-.418.008-.625.021V1.249ZM10.4,15.77a7.1,7.1,0,0,1,3.755.424,1.59,1.59,0,0,0,.6.119H22a1.25,1.25,0,0,1,0,2.5H16.563a.625.625,0,0,0,0,1.25H22a2.5,2.5,0,0,0,2.5-2.5,2.528,2.528,0,0,0-.022-.328c.13-.134,3.908-4.041,4.039-4.176l.028-.031a1.25,1.25,0,1,1,1.908,1.616l-5.58,6.7a4.349,4.349,0,0,1-3.028,1.218H13.615a4.143,4.143,0,0,0-2.889,1.167L10.45,24a2.91,2.91,0,0,0-.384-.473L6.228,19.684a2.918,2.918,0,0,0-.689-.51,6.257,6.257,0,0,1,4.864-3.4ZM3,20.568a1.657,1.657,0,0,1,2.348,0l3.839,3.839a1.658,1.658,0,0,1,0,2.348L7.7,28.232,1.51,22.046Zm0,0" transform="translate(0)"/>
  </g>
</svg>
