<svg xmlns="http://www.w3.org/2000/svg" width="32" height="36.821" viewBox="0 0 32 36.821">
  <g id="testimonial" transform="translate(0 4.816)">
    <g id="Group_178" data-name="Group 178" transform="translate(0 4.871)">
      <g id="Group_177" data-name="Group 177">
        <path id="Path_1310" data-name="Path 1310" d="M21.85,78.7h-.788a.625.625,0,0,0,0,1.25h.788c5.436,0,8.9,3.591,8.9,9.027a9.9,9.9,0,0,1-7.824,9.648.625.625,0,0,0-.5.612v3.632l-3.85-3.85a.625.625,0,0,0-.442-.183H11.108A9.87,9.87,0,0,1,1.25,88.972a6.847,6.847,0,0,1,.877-4.006.625.625,0,0,0-1.092-.608A8.066,8.066,0,0,0,0,88.972a11.121,11.121,0,0,0,11.108,11.108h6.77l4.733,4.733a.625.625,0,0,0,1.067-.442V99.727A11.113,11.113,0,0,0,32,88.972C32,82.847,27.975,78.7,21.85,78.7Z" transform="translate(0 -77.864)" fill="#2b273c"/>
      </g>
    </g>
    <g id="Group_182" data-name="Group 182" transform="translate(7.684 13.431)">
      <g id="Group_181" data-name="Group 181">
        <path id="Path_1312" data-name="Path 1312" d="M138.945,230.825H123.562a.625.625,0,1,0,0,1.25h15.383a.625.625,0,1,0,0-1.25Z" transform="translate(-122.937 -230.825)" fill="#2b273c"/>
      </g>
    </g>
    <g id="Group_184" data-name="Group 184" transform="translate(7.684 16.764)">
      <g id="Group_183" data-name="Group 183">
        <path id="Path_1313" data-name="Path 1313" d="M138.945,284.158H123.562a.625.625,0,1,0,0,1.25h15.383a.625.625,0,1,0,0-1.25Z" transform="translate(-122.937 -284.158)" fill="#2b273c"/>
      </g>
    </g>
    <g id="Group_186" data-name="Group 186" transform="translate(14.867 20.098)">
      <g id="Group_185" data-name="Group 185">
        <path id="Path_1314" data-name="Path 1314" d="M246.7,337.492h-8.2a.625.625,0,1,0,0,1.25h8.2a.625.625,0,0,0,0-1.25Z" transform="translate(-237.871 -337.492)" fill="#2b273c"/>
      </g>
    </g>
    <path id="Path_1028" data-name="Path 1028" d="M338.79,275.133c-.27-.948-1.191-2.055-4.037-2-.112,0-.222.006-.33.009a6.293,6.293,0,0,0,.717-1.856c.309-1.405.22-3.141-.96-3.8a.57.57,0,0,0-.066-.032,1.917,1.917,0,0,0-2.533.919.565.565,0,0,0-.031.084,10.621,10.621,0,0,1-3.233,5.184,1.687,1.687,0,0,0-1.061-.375h-1.225a1.7,1.7,0,0,0-1.7,1.7v5.505a1.7,1.7,0,0,0,1.7,1.7h1.225a1.693,1.693,0,0,0,1.348-.671,9.631,9.631,0,0,0,5.158,1.592,8.356,8.356,0,0,0,2.491-.38.552.552,0,0,0,.071-.027,4.9,4.9,0,0,0,2.992-4.668,8.2,8.2,0,0,0-.524-2.884Zm-10.969,5.342a.567.567,0,0,1-.565.567h-1.225a.567.567,0,0,1-.565-.567v-5.505a.567.567,0,0,1,.565-.566h1.225a.567.567,0,0,1,.565.566Zm8.061,1.169a8.232,8.232,0,0,1-6.929-1.279v-5.4a1.7,1.7,0,0,0-.037-.351,11.521,11.521,0,0,0,3.706-5.8.766.766,0,0,1,1.035-.322c.486.307.641,1.344.376,2.548-.285,1.3-.911,2.146-1.348,2.223l-.062.007a.567.567,0,0,0,.109,1.127.781.781,0,0,0,.106-.011c.248-.027,1.04-.105,1.937-.123,1.183-.024,2.654.164,2.932,1.2a.585.585,0,0,0,.024.07c.077.179,1.769,4.409-1.847,6.111Z" transform="translate(-321.253 -272.097)" fill="#2b273c"/>
  </g>
</svg>
