<svg xmlns="http://www.w3.org/2000/svg" width="24" height="19.503" viewBox="0 0 24 19.503">
  <path id="twitter" d="M25.54,6.294a9.829,9.829,0,0,1-2.822.792,4.931,4.931,0,0,0,2.157-2.73,9.913,9.913,0,0,1-3.12,1.2A4.847,4.847,0,0,0,18.129,4a4.916,4.916,0,0,0-4.9,4.922,5.115,5.115,0,0,0,.126,1.124A13.99,13.99,0,0,1,3.215,4.906a4.9,4.9,0,0,0,1.526,6.551A4.867,4.867,0,0,1,2.5,10.883v.034a4.925,4.925,0,0,0,3.946,4.83,4.825,4.825,0,0,1-2.214.08,4.91,4.91,0,0,0,4.589,3.419A9.776,9.776,0,0,1,2.71,21.358a10.007,10.007,0,0,1-1.17-.069A13.932,13.932,0,0,0,9.089,23.5,13.923,13.923,0,0,0,23.1,9.5c0-.218,0-.424-.011-.642A9.834,9.834,0,0,0,25.54,6.294Z" transform="translate(-1.54 -4)" fill="#2b273c"/>
</svg>
