<svg xmlns="http://www.w3.org/2000/svg" width="38.709" height="45.54" viewBox="0 0 38.709 45.54">
  <g id="Group_899" data-name="Group 899" transform="translate(-199 -94)">
    <path id="Path_1022" data-name="Path 1022" d="M.1,23.414l2.277,2.049a26.7,26.7,0,0,1,17.077-6.6,27.485,27.485,0,0,1,17.077,6.6l2.277-2.049A28.683,28.683,0,0,0,.1,23.414Z" transform="translate(198.9 114.077)" />
    <path id="Path_1023" data-name="Path 1023" d="M17.028.1A14.775,14.775,0,0,0,2,14.673a14.966,14.966,0,0,0,15.028,14.8A14.775,14.775,0,0,0,32.056,14.9,14.964,14.964,0,0,0,17.028.1Zm0,26.185h0A11.569,11.569,0,0,1,5.188,14.673h0A11.71,11.71,0,0,1,17.028,3.06h0a11.569,11.569,0,0,1,11.84,11.613h0A11.566,11.566,0,0,1,17.028,26.285Z" transform="translate(201.327 93.9)" />
  </g>
</svg>
